<svg width="14" height="14" viewBox="0 0 14 14" fill="none" xmlns="http://www.w3.org/2000/svg">
<path d="M6.99048 11.6509H12.2334" stroke="#0074BE" stroke-width="1.1651" stroke-linecap="round" stroke-linejoin="round"/>
<path d="M9.53989 2.10999C9.7718 1.87809 10.0863 1.7478 10.4143 1.7478C10.7423 1.7478 11.0568 1.87809 11.2887 2.10999C11.5206 2.3419 11.6509 2.65644 11.6509 2.9844C11.6509 3.31237 11.5206 3.6269 11.2887 3.85881L4.29229 10.8558C4.1537 10.9944 3.98238 11.0958 3.79421 11.1506L2.12112 11.6388C2.071 11.6534 2.01786 11.6543 1.96728 11.6413C1.91669 11.6283 1.87053 11.602 1.8336 11.5651C1.79668 11.5282 1.77036 11.482 1.7574 11.4314C1.74444 11.3808 1.74532 11.3277 1.75994 11.2776L2.24812 9.6045C2.30301 9.41653 2.40439 9.24543 2.54289 9.107L9.53989 2.10999Z" stroke="#0074BE" stroke-width="1.1651" stroke-linecap="round" stroke-linejoin="round"/>
</svg>
