<svg width="24" height="24" viewBox="0 0 24 24" fill="none" xmlns="http://www.w3.org/2000/svg">
<path d="M7.83331 11.1666V7.83329C7.83331 6.72822 8.2723 5.66842 9.0537 4.88701C9.8351 4.10561 10.8949 3.66663 12 3.66663C13.105 3.66663 14.1649 4.10561 14.9463 4.88701C15.7277 5.66842 16.1666 6.72822 16.1666 7.83329V11.1666" stroke="#3E4955" stroke-linecap="round" stroke-linejoin="round"/>
<path d="M17.8333 11.1666H6.16667C5.24619 11.1666 4.5 11.9128 4.5 12.8333V18.6666C4.5 19.5871 5.24619 20.3333 6.16667 20.3333H17.8333C18.7538 20.3333 19.5 19.5871 19.5 18.6666V12.8333C19.5 11.9128 18.7538 11.1666 17.8333 11.1666Z" stroke="#3E4955" stroke-linecap="round" stroke-linejoin="round"/>
</svg>
