<svg width="60" height="60" viewBox="0 0 60 60" fill="none" xmlns="http://www.w3.org/2000/svg">
<path d="M50 32.5001C50 45.0001 41.25 51.2502 30.85 54.8752C30.3054 55.0597 29.7138 55.0509 29.175 54.8502C18.75 51.2501 10 45.0001 10 32.5001V15.0001C10 14.3371 10.2634 13.7012 10.7322 13.2324C11.2011 12.7635 11.837 12.5001 12.5 12.5001C17.5 12.5001 23.75 9.50015 28.1 5.70015C28.6296 5.24764 29.3034 4.99902 30 4.99902C30.6966 4.99902 31.3704 5.24764 31.9 5.70015C36.275 9.52515 42.5 12.5001 47.5 12.5001C48.163 12.5001 48.7989 12.7635 49.2678 13.2324C49.7366 13.7012 50 14.3371 50 15.0001V32.5001Z" stroke="white" stroke-width="3" stroke-linecap="round" stroke-linejoin="round"/>
</svg>
