<svg width="60" height="60" viewBox="0 0 60 60" fill="none" xmlns="http://www.w3.org/2000/svg">
<path d="M10.0002 34.9999C9.52714 35.0015 9.0633 34.8689 8.66261 34.6174C8.26191 34.3659 7.94081 34.0058 7.7366 33.5791C7.53239 33.1523 7.45346 32.6764 7.50897 32.2066C7.56449 31.7367 7.75218 31.2923 8.05022 30.9249L32.8002 5.42492C32.9859 5.21062 33.2389 5.06581 33.5177 5.01425C33.7965 4.96269 34.0845 5.00745 34.3345 5.14118C34.5846 5.27491 34.7817 5.48966 34.8936 5.75019C35.0054 6.01072 35.0254 6.30154 34.9502 6.57492L30.1502 21.6249C30.0087 22.0037 29.9612 22.4112 30.0117 22.8124C30.0622 23.2137 30.2094 23.5966 30.4404 23.9285C30.6715 24.2603 30.9797 24.5312 31.3384 24.7178C31.6972 24.9044 32.0958 25.0012 32.5002 24.9999H50.0002C50.4733 24.9983 50.9371 25.131 51.3378 25.3825C51.7385 25.634 52.0596 25.994 52.2638 26.4208C52.4681 26.8475 52.547 27.3235 52.4915 27.7933C52.436 28.2631 52.2483 28.7075 51.9502 29.0749L27.2002 54.5749C27.0146 54.7892 26.7616 54.934 26.4828 54.9856C26.204 55.0371 25.9159 54.9924 25.6659 54.8587C25.4159 54.7249 25.2188 54.5102 25.1069 54.2496C24.995 53.9891 24.975 53.6983 25.0502 53.4249L29.8502 38.3749C29.9918 37.9961 30.0393 37.5886 29.9887 37.1874C29.9382 36.7862 29.7911 36.4032 29.56 36.0714C29.3289 35.7395 29.0208 35.4686 28.662 35.282C28.3033 35.0954 27.9046 34.9986 27.5002 34.9999H10.0002Z" stroke="white" stroke-width="3" stroke-linecap="round" stroke-linejoin="round"/>
</svg>
