<svg width="19" height="19" viewBox="0 0 19 19" fill="none" xmlns="http://www.w3.org/2000/svg">
<path d="M11.8928 8.3625C11.8928 8.22077 11.8365 8.08485 11.7363 7.98464C11.6361 7.88443 11.5002 7.82812 11.3584 7.82812H5.48033C5.3386 7.82813 5.20268 7.88443 5.10247 7.98464C5.00225 8.08485 4.94595 8.22077 4.94595 8.3625C4.94595 8.50422 5.00225 8.64015 5.10247 8.74036C5.20268 8.84057 5.3386 8.89688 5.48033 8.89688H11.3584C11.4286 8.89688 11.4981 8.88305 11.5629 8.8562C11.6278 8.82934 11.6867 8.78998 11.7363 8.74036C11.7859 8.69074 11.8253 8.63183 11.8521 8.567C11.879 8.50216 11.8928 8.43267 11.8928 8.3625ZM5.47914 10.5267C5.33741 10.5267 5.20149 10.583 5.10128 10.6832C5.00106 10.7834 4.94476 10.9194 4.94476 11.0611C4.94476 11.2028 5.00106 11.3387 5.10128 11.439C5.20149 11.5392 5.33741 11.5955 5.47914 11.5955H8.59573C8.73746 11.5955 8.87338 11.5392 8.97359 11.439C9.07381 11.3387 9.13011 11.2028 9.13011 11.0611C9.13011 10.9194 9.07381 10.7834 8.97359 10.6832C8.87338 10.583 8.73746 10.5267 8.59573 10.5267H5.47914Z" fill="#0074BE"/>
<path d="M15.4138 8.39198C15.272 8.39198 15.1361 8.44828 15.0359 8.5485C14.9357 8.64871 14.8794 8.78463 14.8794 8.92636V13.2483C14.8789 13.6371 14.7243 14.0098 14.4493 14.2848C14.1744 14.5597 13.8016 14.7144 13.4128 14.7148H9.83845C9.72253 14.7147 9.60973 14.7524 9.51723 14.8223L6.43092 17.1433C6.40456 17.1644 6.37242 17.1771 6.33872 17.1796C6.30502 17.1822 6.27134 17.1745 6.24211 17.1575C6.21189 17.1431 6.1866 17.1201 6.16939 17.0913C6.15217 17.0626 6.1438 17.0295 6.14532 16.996L6.2047 15.2682C6.207 15.1966 6.19491 15.1252 6.16914 15.0584C6.14337 14.9915 6.10445 14.9305 6.05468 14.879C6.0049 14.8274 5.94529 14.7864 5.87937 14.7583C5.81346 14.7302 5.74257 14.7156 5.67092 14.7154H3.18845C2.79959 14.7151 2.42675 14.5605 2.15178 14.2855C1.87682 14.0106 1.7222 13.6377 1.72189 13.2489V6.18323C1.72157 5.79369 1.87581 5.41993 2.15076 5.14398C2.42571 4.86803 2.79891 4.71243 3.18845 4.71133H9.77314C9.91486 4.71133 10.0508 4.65503 10.151 4.55481C10.2512 4.4546 10.3075 4.31868 10.3075 4.17695C10.3075 4.03523 10.2512 3.89931 10.151 3.79909C10.0508 3.69888 9.91486 3.64258 9.77314 3.64258H3.18845C2.5155 3.64415 1.87065 3.91258 1.39535 4.38899C0.920058 4.8654 0.653135 5.51087 0.653137 6.18383V13.2489C0.653923 13.9211 0.921268 14.5656 1.39654 15.0409C1.87182 15.5163 2.51623 15.7838 3.18845 15.7848H5.11754L5.07717 16.9616C5.06898 17.1966 5.12783 17.4291 5.24685 17.6319C5.36586 17.8347 5.54013 17.9995 5.74929 18.1069C5.92737 18.2003 6.12537 18.2491 6.32642 18.2494C6.58945 18.2494 6.85011 18.1645 7.07217 17.9989L10.0166 15.7848H13.4122C14.0845 15.7838 14.7289 15.5163 15.2041 15.0409C15.6794 14.5656 15.9468 13.9211 15.9475 13.2489V8.92695C15.9477 8.85676 15.934 8.78722 15.9073 8.72232C15.8805 8.65742 15.8412 8.59844 15.7916 8.54874C15.742 8.49905 15.6831 8.45963 15.6183 8.43273C15.5535 8.40583 15.484 8.39198 15.4138 8.39198Z" fill="#0074BE"/>
<path d="M18.3023 3.30193C18.2557 3.15678 18.1727 3.026 18.0611 2.92206C17.9496 2.81812 17.8133 2.74448 17.6652 2.70818L16.2996 2.36796L15.5539 1.17452C15.2231 0.643707 14.3598 0.644895 14.0297 1.17452L13.284 2.36796L11.9183 2.70818C11.6161 2.78299 11.3774 3.00505 11.2812 3.30193C11.1851 3.5988 11.2468 3.91883 11.4475 4.15811L12.3524 5.23518L12.2538 6.6388C12.2426 6.79091 12.2706 6.94335 12.335 7.08159C12.3995 7.21982 12.4982 7.33925 12.6219 7.42849C12.7451 7.51848 12.8893 7.57548 13.0407 7.59408C13.1921 7.61269 13.3457 7.59227 13.487 7.53477L14.7921 7.00752L16.0966 7.53477C16.3857 7.65233 16.7087 7.61196 16.9616 7.42908C17.214 7.24561 17.3517 6.95052 17.3304 6.6388L17.2318 5.23518L18.1367 4.15752C18.3368 3.91883 18.3991 3.5988 18.3023 3.30193ZM16.2741 4.71327C16.1848 4.81962 16.1405 4.95657 16.1506 5.09505L16.2456 6.44286L14.9928 5.93639C14.8645 5.88425 14.7209 5.88425 14.5926 5.93639L13.3404 6.44286L13.4348 5.09505C13.4441 4.95666 13.3999 4.81996 13.3113 4.71327L12.4426 3.67896L13.7536 3.3518C13.8879 3.31827 14.0039 3.23399 14.0772 3.11668L14.7933 1.97133L15.5093 3.11668C15.583 3.23424 15.6987 3.31855 15.8329 3.3518L17.1439 3.67896L16.2741 4.71327Z" fill="#0074BE"/>
</svg>
