<svg width="32" height="32" viewBox="0 0 32 32" fill="none" xmlns="http://www.w3.org/2000/svg">
<path d="M14.6657 2.6665V5.333" stroke="white" stroke-width="2.6665" stroke-linecap="round" stroke-linejoin="round"/>
<path d="M6.66625 2.6665V5.333" stroke="white" stroke-width="2.6665" stroke-linecap="round" stroke-linejoin="round"/>
<path d="M6.66625 3.99976H5.333C4.6258 3.99976 3.94757 4.28069 3.4475 4.78076C2.94744 5.28082 2.6665 5.95906 2.6665 6.66626V11.9993C2.6665 14.1209 3.50931 16.1556 5.0095 17.6558C6.5097 19.156 8.5444 19.9988 10.666 19.9988C12.7876 19.9988 14.8223 19.156 16.3225 17.6558C17.8227 16.1556 18.6655 14.1209 18.6655 11.9993V6.66626C18.6655 5.95906 18.3846 5.28082 17.8845 4.78076C17.3844 4.28069 16.7062 3.99976 15.999 3.99976H14.6658" stroke="white" stroke-width="2.6665" stroke-linecap="round" stroke-linejoin="round"/>
<path d="M10.666 19.9988C10.666 22.1204 11.5088 24.1551 13.009 25.6553C14.5092 27.1555 16.5439 27.9983 18.6655 27.9983C20.7871 27.9983 22.8218 27.1555 24.322 25.6553C25.8222 24.1551 26.665 22.1204 26.665 19.9988V15.999" stroke="white" stroke-width="2.6665" stroke-linecap="round" stroke-linejoin="round"/>
<path d="M26.665 15.999C28.1377 15.999 29.3315 14.8052 29.3315 13.3325C29.3315 11.8598 28.1377 10.666 26.665 10.666C25.1923 10.666 23.9985 11.8598 23.9985 13.3325C23.9985 14.8052 25.1923 15.999 26.665 15.999Z" stroke="white" stroke-width="2.6665" stroke-linecap="round" stroke-linejoin="round"/>
</svg>
