<svg width="32" height="32" viewBox="0 0 32 32" fill="none" xmlns="http://www.w3.org/2000/svg">
<path d="M7.9995 29.3315V5.333C7.9995 4.6258 8.28043 3.94757 8.7805 3.4475C9.28056 2.94744 9.9588 2.6665 10.666 2.6665H21.332C22.0392 2.6665 22.7174 2.94744 23.2175 3.4475C23.7176 3.94757 23.9985 4.6258 23.9985 5.333V29.3315H7.9995Z" stroke="#3E4955" stroke-width="2" stroke-linecap="round" stroke-linejoin="round"/>
<path d="M7.9995 15.999H5.333C4.6258 15.999 3.94757 16.28 3.4475 16.78C2.94744 17.2801 2.6665 17.9583 2.6665 18.6655V26.665C2.6665 27.3722 2.94744 28.0505 3.4475 28.5505C3.94757 29.0506 4.6258 29.3315 5.333 29.3315H7.9995" stroke="#3E4955" stroke-width="2" stroke-linecap="round" stroke-linejoin="round"/>
<path d="M23.9985 11.9993H26.665C27.3722 11.9993 28.0504 12.2802 28.5505 12.7803C29.0506 13.2803 29.3315 13.9586 29.3315 14.6658V26.665C29.3315 27.3722 29.0506 28.0505 28.5505 28.5505C28.0504 29.0506 27.3722 29.3315 26.665 29.3315H23.9985" stroke="#3E4955" stroke-width="2" stroke-linecap="round" stroke-linejoin="round"/>
<path d="M13.3325 7.99951H18.6655" stroke="#3E4955" stroke-width="2" stroke-linecap="round" stroke-linejoin="round"/>
<path d="M13.3325 13.3325H18.6655" stroke="#3E4955" stroke-width="2" stroke-linecap="round" stroke-linejoin="round"/>
<path d="M13.3325 18.6655H18.6655" stroke="#3E4955" stroke-width="2" stroke-linecap="round" stroke-linejoin="round"/>
<path d="M13.3325 23.9985H18.6655" stroke="#3E4955" stroke-width="2" stroke-linecap="round" stroke-linejoin="round"/>
</svg>
