<svg width="19" height="19" viewBox="0 0 19 19" fill="none" xmlns="http://www.w3.org/2000/svg">
<path fill-rule="evenodd" clip-rule="evenodd" d="M18.0607 0.939342C17.8981 0.776842 17.6915 0.66534 17.4665 0.618511C17.2414 0.571682 17.0076 0.591564 16.7936 0.675717L1.34127 6.76284C1.11026 6.85368 0.913777 7.01506 0.779798 7.22404C0.645819 7.43301 0.581168 7.67892 0.595047 7.92676C0.608926 8.17461 0.700627 8.41176 0.857099 8.60447C1.01357 8.79718 1.22684 8.93562 1.46656 9.00009L8.18662 10.8134L9.99993 17.5335C10.0644 17.7732 10.2028 17.9865 10.3956 18.1429C10.5883 18.2994 10.8254 18.3911 11.0733 18.405C11.3211 18.4189 11.567 18.3542 11.776 18.2202C11.985 18.0862 12.1463 17.8898 12.2372 17.6587L18.3243 2.2064C18.4085 1.99247 18.4283 1.75862 18.3815 1.53355C18.3347 1.30847 18.2232 1.10196 18.0607 0.939342ZM11.1405 17.2027L9.33196 10.5005C9.27806 10.3014 9.17295 10.1199 9.02711 9.97409C8.88128 9.82826 8.69979 9.72315 8.50071 9.66925L1.79727 7.8595L17.2128 1.78722L11.1405 17.2027Z" fill="#0074BE"/>
</svg>
